<?xml version="1.0" encoding="UTF-8"?> <svg xmlns="http://www.w3.org/2000/svg" width="75" height="89" viewBox="0 0 75 89" fill="none"> <path fill-rule="evenodd" clip-rule="evenodd" d="M37.375 47.5481C16.7314 47.5481 0 64.9598 0 86.2841C0 87.664 1.11828 88.7841 2.5 88.7841H72.25C73.6303 88.7841 74.75 87.6644 74.75 86.2841C74.75 64.9588 58.0196 47.5481 37.375 47.5481ZM69.6627 83.7841H5.08821C6.32115 66.3128 20.3653 52.5481 37.375 52.5481C54.3847 52.5481 68.4288 66.3128 69.6627 83.7841Z" fill="black"></path> <path fill-rule="evenodd" clip-rule="evenodd" d="M36.7471 45.426C48.8995 45.426 58.7261 35.2056 58.7261 22.713C58.7261 10.2204 48.9005 0 36.7471 0C24.5937 0 14.7671 10.2214 14.7671 22.713C14.7671 35.2046 24.5937 45.426 36.7471 45.426ZM36.7471 5C46.0714 5 53.7261 12.9092 53.7261 22.713C53.7261 32.5168 46.0714 40.426 36.7471 40.426C27.4217 40.426 19.7671 32.5168 19.7671 22.713C19.7671 12.9092 27.4227 5 36.7471 5Z" fill="black"></path> </svg> 