<?xml version="1.0" encoding="UTF-8"?> <svg xmlns="http://www.w3.org/2000/svg" width="58" height="58" viewBox="0 0 58 58" fill="none"> <rect x="0.5" y="0.5" width="57" height="57" stroke="black"></rect> <path d="M27.5779 36.464C27.5779 35.232 27.7832 34.1467 28.1939 33.208C28.6046 32.2693 29.0886 31.4773 29.6459 30.832C30.2326 30.1867 31.0099 29.4387 31.9779 28.588C33.3272 27.4147 34.3392 26.344 35.0139 25.376C35.6886 24.3787 36.0259 23.1173 36.0259 21.592C36.0259 19.744 35.3072 18.248 33.8699 17.104C32.4326 15.9307 30.4232 15.344 27.8419 15.344C25.7886 15.344 23.9992 15.652 22.4739 16.268C20.9779 16.884 19.6872 17.808 18.6019 19.04L17.5459 18.16C19.9806 15.4027 23.4272 14.024 27.8859 14.024C30.8192 14.024 33.1512 14.7133 34.8819 16.092C36.6419 17.4413 37.5219 19.2307 37.5219 21.46C37.5219 22.692 37.3166 23.7773 36.9059 24.716C36.5246 25.6547 36.0406 26.4613 35.4539 27.136C34.8966 27.7813 34.1339 28.5293 33.1659 29.38C32.2566 30.172 31.5232 30.8613 30.9659 31.448C30.4379 32.0347 29.9832 32.7533 29.6019 33.604C29.2499 34.4253 29.0739 35.3787 29.0739 36.464H27.5779ZM28.3259 45.132C27.9446 45.132 27.6072 45 27.3139 44.736C27.0499 44.4427 26.9179 44.1053 26.9179 43.724C26.9179 43.3133 27.0499 42.976 27.3139 42.712C27.6072 42.4187 27.9446 42.272 28.3259 42.272C28.7366 42.272 29.0739 42.4187 29.3379 42.712C29.6312 42.976 29.7779 43.3133 29.7779 43.724C29.7779 44.1053 29.6312 44.4427 29.3379 44.736C29.0739 45 28.7366 45.132 28.3259 45.132Z" fill="black"></path> </svg> 