<?xml version="1.0" encoding="UTF-8"?> <svg xmlns="http://www.w3.org/2000/svg" width="45" height="30" viewBox="0 0 45 30" fill="none"> <path fill-rule="evenodd" clip-rule="evenodd" d="M8.70256 14.839L8.60431 14.9933L8.69652 15.1513C9.74488 16.9477 14.3468 23.7157 22.9998 23.7157C31.6542 23.7157 36.1626 16.9432 37.2971 15.1612L37.3953 15.0069L37.3031 14.8489C36.2547 13.0525 31.6528 6.28453 22.9998 6.28453C14.3454 6.28453 9.83703 13.057 8.70256 14.839ZM22.9998 24.9858C17.6752 24.9858 13.8096 22.6683 11.2453 20.2855C8.70585 17.9259 7.45758 15.5156 7.35176 15.2692C7.2836 15.0605 7.28252 14.8564 7.34842 14.6479C7.49593 14.3609 8.74979 12.0106 11.2447 9.7035C13.8094 7.33195 17.6751 5.0144 22.9998 5.0144C28.3244 5.0144 32.19 7.33191 34.7544 9.71469C37.2938 12.0743 38.5421 14.4847 38.6479 14.7311C38.716 14.9398 38.7171 15.1439 38.6512 15.3523C38.5037 15.6393 37.2498 17.9896 34.7549 20.2967C32.1903 22.6683 28.3245 24.9858 22.9998 24.9858Z" fill="black"></path> <path fill-rule="evenodd" clip-rule="evenodd" d="M23.0003 22.7C18.7215 22.7 15.3003 19.2788 15.3003 15C15.3003 10.7213 18.7215 7.30005 23.0003 7.30005C27.2791 7.30005 30.7003 10.7213 30.7003 15C30.7003 19.2788 27.2791 22.7 23.0003 22.7ZM23.0003 8.47783C19.3679 8.47783 16.4781 11.3677 16.4781 15C16.4781 18.6324 19.3679 21.5223 23.0003 21.5223C26.6326 21.5223 29.5225 18.6324 29.5225 15C29.5225 11.3677 26.6326 8.47783 23.0003 8.47783Z" fill="black"></path> <path fill-rule="evenodd" clip-rule="evenodd" d="M23.0004 19.2716C20.6061 19.2716 18.729 17.3945 18.729 15.0002C18.729 14.7941 18.7964 14.6457 18.8926 14.5495C18.9888 14.4533 19.1372 14.3859 19.3433 14.3859C19.5493 14.3859 19.6978 14.4533 19.794 14.5495C19.8902 14.6457 19.9576 14.7941 19.9576 15.0002C19.9576 16.7202 21.2805 18.043 23.0004 18.043C24.7204 18.043 26.0433 16.7202 26.0433 15.0002C26.0433 13.2802 24.7204 11.9573 23.0004 11.9573C22.7944 11.9573 22.6459 11.89 22.5497 11.7938C22.4535 11.6976 22.3861 11.5491 22.3861 11.343C22.3861 11.137 22.4535 10.9885 22.5497 10.8923C22.6459 10.7961 22.7944 10.7288 23.0004 10.7288C25.3947 10.7288 27.2719 12.6059 27.2719 15.0002C27.2719 17.3945 25.3947 19.2716 23.0004 19.2716Z" fill="black"></path> </svg> 