<?xml version="1.0" encoding="UTF-8"?>
<svg xmlns="http://www.w3.org/2000/svg" width="39" height="30" viewBox="0 0 39 30" fill="none"> <path fill-rule="evenodd" clip-rule="evenodd" d="M19.7867 21.7257C19.0036 21.7257 18.4745 20.6675 18.4745 19.4188C18.4745 18.8367 18.7003 18.4381 19.1588 18.4381C19.949 18.4381 20.4781 19.4963 20.4781 20.7451C20.4781 21.3236 20.2524 21.7257 19.7903 21.7257H19.7867ZM28.4396 27.4438L27.4978 26.897V21.7857L30.0164 23.2496V24.3078L28.4326 23.3907L28.4396 27.4438ZM15.7301 16.0147L14.4003 15.2528V19.3129L13.4584 18.7697V14.706L12.1392 13.9406V12.8823L15.7266 14.96L15.7301 16.0147ZM33.1418 25.0169L32.0588 27.0804L31.5685 24.1103L30.2775 23.3695L31.4733 28.0928C31.2899 28.1916 30.9547 28.1598 30.4962 27.8565L30.4644 28.7101C31.4486 29.2816 31.7696 28.9853 32.2282 28.2727L34.0378 25.5389L33.1418 25.0169ZM25.8081 23.299L25.9175 25.9693L26.7817 26.4667L26.5489 21.9621L25.7729 21.507L24.4571 23.9763L23.3989 20.1348L22.256 19.4681L21.9032 23.6517L22.7675 24.1491L23.0038 21.7151L23.8716 24.7911L24.7146 25.2708L25.8081 23.299ZM19.9949 22.5935C20.9473 22.5935 21.5117 21.888 21.5117 20.7909C21.5117 18.8473 20.2876 17.521 18.9754 17.521C18.655 17.5108 18.3407 17.6101 18.0842 17.8025C17.8277 17.9948 17.6444 18.2688 17.5644 18.5792V18.5192L17.0177 18.2018V16.4345L16.0864 15.8948V20.3077L17.0212 20.8403V19.1612L17.4586 19.4188C17.4903 21.3236 18.7038 22.6182 19.9949 22.6182" fill="#231F20"/> <path fill-rule="evenodd" clip-rule="evenodd" d="M35.9359 1.26658C35.9218 1.39357 36.0135 1.50997 36.2075 1.61932C36.2927 1.6601 36.3828 1.68974 36.4756 1.70751C36.5557 1.73192 36.6388 1.74498 36.7225 1.74631C36.8042 1.74977 36.886 1.74266 36.9659 1.72514C37.0457 1.70793 37.1237 1.68314 37.1987 1.65108C37.2784 1.61782 37.3561 1.58013 37.4315 1.5382C37.5259 1.48611 37.6037 1.40853 37.6561 1.31435C37.7085 1.22017 37.7333 1.11318 37.7279 1.00555L38.0453 1.12547L38.2429 1.01261L36.8319 0.204801C36.6207 0.0716333 36.3761 0.000976562 36.1264 0.000976562C35.8767 0.000976562 35.6321 0.0716333 35.4209 0.204801C35.1829 0.322362 34.9897 0.51431 34.8706 0.751557L35.1987 0.846805C35.2917 0.632682 35.4529 0.455335 35.6572 0.342378C35.7737 0.274564 35.9071 0.241506 36.0417 0.247129C36.1779 0.249126 36.3114 0.285525 36.4297 0.35295L36.7613 0.546978L36.2499 0.878562C36.0523 1.01966 35.95 1.13959 35.9359 1.26658ZM36.8813 1.53114C36.7673 1.5278 36.6564 1.49366 36.5603 1.43236L36.5638 1.41472C36.4474 1.34418 36.3839 1.30538 36.3768 1.24541C36.3698 1.18545 36.4156 1.11842 36.5144 1.04081C36.6647 0.915357 36.8213 0.797623 36.9836 0.688065L37.488 0.97732C37.4864 1.06056 37.4633 1.14196 37.421 1.21366C37.3665 1.30659 37.2871 1.38237 37.1917 1.43236C37.0981 1.49071 36.9914 1.52468 36.8813 1.53114ZM34.8949 2.94557L32.8384 1.74975L33.1558 1.56632L34.013 2.06017L34.1365 1.98962C34.3199 1.8838 34.3587 1.76386 34.26 1.63687L34.1189 1.45346C34.0663 1.39382 34.0288 1.32244 34.0095 1.24533C34.0028 1.21464 34.0031 1.18284 34.0104 1.15229C34.0178 1.12175 34.0319 1.09325 34.0518 1.06895C34.1158 0.996953 34.1923 0.937189 34.2776 0.892578L34.5175 1.00546C34.4958 1.017 34.4756 1.03122 34.4575 1.04779C34.4397 1.06169 34.4242 1.07837 34.4116 1.09718C34.4027 1.12106 34.4027 1.14736 34.4116 1.17124C34.4209 1.20622 34.4378 1.23875 34.461 1.26649L34.5951 1.44993C34.6496 1.51517 34.6904 1.59076 34.715 1.67216C34.7194 1.70033 34.7158 1.72915 34.7046 1.75535C34.6933 1.78156 34.6749 1.80408 34.6515 1.82031C34.7179 1.79564 34.789 1.786 34.8596 1.79208C34.9784 1.81057 35.0962 1.8353 35.2124 1.86617H35.2759L35.8191 2.00021C35.8879 2.0178 35.9595 2.02155 36.0297 2.01126C36.1 2.00096 36.1674 1.97682 36.2283 1.94023L36.4258 2.08487C36.3358 2.13986 36.24 2.18482 36.1401 2.21891C36.0401 2.25163 35.9342 2.26245 35.8297 2.25065C35.6844 2.23457 35.5405 2.20746 35.3993 2.16952L34.9302 2.04254C34.8334 2.018 34.7331 2.01084 34.6339 2.02138C34.5388 2.02976 34.4464 2.05736 34.3623 2.1025L34.2353 2.18012L35.2124 2.74451L34.8949 2.94557ZM31.3218 3.32647C31.4402 3.43581 31.5703 3.53164 31.7098 3.6122C31.9917 3.81589 32.3255 3.93558 32.6726 3.95743C33.0197 3.97928 33.3659 3.90239 33.6711 3.73565C33.9116 3.62056 34.1155 3.44108 34.2602 3.21712L33.9075 3.1254C33.7985 3.33114 33.6267 3.49672 33.4172 3.59807C33.3464 3.63797 33.2704 3.66766 33.1914 3.68626C33.0966 3.70824 32.9995 3.71891 32.9021 3.71802C32.7824 3.71661 32.6636 3.69758 32.5494 3.66157C32.414 3.62315 32.2846 3.56618 32.1649 3.49225L32.0661 3.43582L33.3748 2.68094C33.2035 2.5797 33.0255 2.49013 32.8422 2.41285C32.693 2.35098 32.5365 2.30832 32.3765 2.28586C32.2297 2.25758 32.0789 2.25758 31.9321 2.28586C31.7758 2.32499 31.626 2.38677 31.4876 2.46928C31.3618 2.5336 31.2539 2.62815 31.1737 2.74443C31.1458 2.78726 31.1276 2.83561 31.1203 2.88616C31.113 2.93671 31.1168 2.98826 31.1313 3.03722C31.1698 3.14796 31.2353 3.24738 31.3218 3.32647ZM32.8528 2.7268L31.858 3.30178C31.7806 3.25449 31.7095 3.19758 31.6464 3.13244C31.592 3.08328 31.5488 3.02317 31.5194 2.95607C31.5048 2.92707 31.4972 2.89507 31.4972 2.86261C31.4972 2.83015 31.5048 2.79813 31.5194 2.76912C31.5622 2.69476 31.626 2.63465 31.7028 2.59628C31.7893 2.54537 31.8834 2.50846 31.9815 2.48693C32.0735 2.4693 32.1681 2.4693 32.2601 2.48693C32.3571 2.50438 32.4518 2.53278 32.5423 2.57159C32.634 2.61039 32.7363 2.6633 32.8528 2.7268ZM29.071 4.21551L28.8135 4.06736L30.3691 3.17139L30.6231 3.31953L30.0058 3.67228L31.8154 4.73053L31.4979 4.91396L29.6848 3.85572L29.071 4.21551ZM27.8293 5.85202C27.9824 5.941 28.143 6.01654 28.3091 6.07778C28.4627 6.13394 28.6226 6.17068 28.7853 6.18713C28.9504 6.20407 29.1171 6.19453 29.2791 6.15891C29.4523 6.11684 29.6186 6.05033 29.773 5.96137C29.9112 5.89326 30.0319 5.79429 30.1257 5.67211C30.1575 5.63257 30.1789 5.58578 30.1882 5.53592C30.1974 5.48606 30.1941 5.43468 30.1787 5.38639C30.1404 5.28042 30.0761 5.1858 29.9917 5.11126C29.8723 5.00622 29.7423 4.91399 29.6037 4.8361C28.87 4.41281 28.2068 4.35637 27.6212 4.70912C27.4813 4.77455 27.36 4.874 27.2685 4.99838C27.2396 5.04075 27.221 5.0893 27.2143 5.14015C27.2075 5.191 27.2128 5.2427 27.2297 5.29114C27.2738 5.39959 27.3427 5.49624 27.4308 5.57336C27.5545 5.67867 27.688 5.77197 27.8293 5.85202ZM28.4079 5.78147C28.3338 5.74619 28.2562 5.70387 28.1715 5.65448C28.0692 5.59451 27.981 5.53806 27.907 5.48868C27.8371 5.44114 27.7721 5.3868 27.7129 5.32643C27.6645 5.27941 27.6281 5.22131 27.6071 5.15712C27.6007 5.12956 27.6 5.10098 27.6048 5.07311C27.6096 5.04524 27.62 5.01863 27.6353 4.99484C27.6833 4.92835 27.7461 4.87399 27.8188 4.8361C27.903 4.78561 27.9947 4.74871 28.0904 4.72675C28.178 4.7049 28.2684 4.69657 28.3585 4.70206C28.4545 4.70679 28.5495 4.7246 28.6407 4.75498C28.7398 4.78524 28.8365 4.82297 28.9299 4.86786C29.0216 4.91019 29.1239 4.96662 29.2403 5.03364C29.3624 5.10035 29.4802 5.17457 29.5931 5.25587C29.6648 5.30862 29.7258 5.37444 29.773 5.44988C29.792 5.47868 29.8021 5.51241 29.8021 5.5469C29.8021 5.58138 29.792 5.61509 29.773 5.64389C29.7171 5.72593 29.6404 5.79168 29.5508 5.83439C29.4793 5.87528 29.4036 5.90838 29.325 5.93315C29.2504 5.95431 29.1733 5.965 29.0957 5.9649C29.02 5.96501 28.9444 5.95793 28.87 5.94374C28.7904 5.93038 28.7124 5.90912 28.6371 5.88025C28.556 5.8485 28.4819 5.81674 28.4079 5.78147ZM26.7644 7.64064L24.6973 6.44482L25.0147 6.26138L26.3869 7.05156L26.648 7.23497H26.6656L26.528 6.98453L25.9989 5.70053L26.3128 5.51709L28.3835 6.71291L28.0625 6.89635L26.6515 6.08501L26.3763 5.89453H26.3587L26.521 6.14852L27.0642 7.46427L26.7644 7.64064ZM24.3163 8.83631L24.2423 8.87864L24.528 8.98093L24.6162 8.93154L24.6902 8.88217C24.7149 8.86771 24.7375 8.84989 24.7573 8.82925L24.8102 8.77633C24.827 8.76049 24.8402 8.74126 24.849 8.7199V8.65994C24.8525 8.63537 24.8525 8.61042 24.849 8.58585C24.8403 8.55811 24.8297 8.531 24.8172 8.50473C24.8043 8.47167 24.7865 8.44075 24.7643 8.41301C24.698 8.32386 24.6197 8.24432 24.5315 8.17667C24.407 8.07568 24.2762 7.98259 24.14 7.89799C23.9883 7.79922 23.8613 7.72163 23.766 7.66519L23.4133 7.45002L24.0412 7.09727L25.8719 8.15551L26.1894 7.97208L24.1223 6.77979L22.856 7.50998L23.311 7.77807C23.4027 7.83098 23.5332 7.90858 23.7061 8.01793C23.8789 8.12729 24.02 8.22253 24.1294 8.30719C24.229 8.38156 24.3222 8.46414 24.408 8.5541C24.4291 8.57405 24.4459 8.59805 24.4574 8.62465C24.4644 8.64524 24.4644 8.66755 24.4574 8.68814C24.4521 8.70699 24.4437 8.72486 24.4327 8.74106C24.4177 8.76007 24.3998 8.77672 24.3798 8.79045L24.3163 8.83631ZM21.4237 9.54873C21.205 9.42174 21.0216 9.30886 20.8734 9.19598C20.7393 9.10539 20.612 9.00519 20.4925 8.89615C20.4028 8.8186 20.3296 8.72385 20.2773 8.61749C20.2414 8.53658 20.2328 8.44622 20.2526 8.35997C20.2808 8.26114 20.3357 8.17203 20.4113 8.10247L20.6336 7.8873L20.8699 7.65447C20.9122 7.60509 20.9052 7.56629 20.8487 7.53102L21.1239 7.39697C21.3391 7.52043 21.3532 7.67564 21.1627 7.85907L21.1193 7.89938C21.0715 7.94369 21.0161 7.99508 20.9546 8.05661L20.7323 8.26121C20.6853 8.30554 20.6543 8.36418 20.6441 8.42798C20.6339 8.49179 20.645 8.55717 20.6759 8.61396C20.7868 8.78149 20.9402 8.91659 21.1204 9.0055C21.0897 8.96319 21.0704 8.91377 21.0643 8.86192C21.0581 8.81007 21.0653 8.7575 21.0851 8.70919C21.1518 8.57746 21.2595 8.47099 21.392 8.40583C21.6526 8.24732 21.9551 8.1711 22.2597 8.18713C22.587 8.22531 22.9023 8.3336 23.1839 8.50461C23.3235 8.58237 23.4537 8.67587 23.572 8.78327C23.6577 8.8574 23.7232 8.95208 23.7624 9.05842C23.7759 9.10694 23.7781 9.15788 23.7689 9.20739C23.7598 9.2569 23.7395 9.30367 23.7095 9.34415C23.6135 9.46332 23.4933 9.56071 23.3568 9.62987C23.2011 9.71884 23.0337 9.78535 22.8594 9.82741C22.6976 9.86476 22.5306 9.87429 22.3656 9.85562C22.2041 9.83887 22.0453 9.80214 21.8929 9.74627C21.7308 9.69493 21.5737 9.6288 21.4237 9.54873ZM21.7765 9.35119C21.8823 9.41116 21.974 9.46056 22.0587 9.49936C22.1464 9.54037 22.2372 9.57456 22.3303 9.60165C22.4187 9.62878 22.5098 9.64653 22.6019 9.65457C22.7899 9.66303 22.9762 9.61644 23.1381 9.52052C23.2285 9.47763 23.3063 9.41199 23.3638 9.33003C23.3818 9.30214 23.3913 9.26969 23.3913 9.23654C23.3913 9.20339 23.3818 9.17096 23.3638 9.14308C23.3179 9.06875 23.258 9.00404 23.1875 8.95258C23.0749 8.87079 22.9571 8.79655 22.8347 8.73035C22.7359 8.67391 22.6442 8.62807 22.5666 8.59279C22.4854 8.55338 22.4003 8.52264 22.3126 8.50108C22.2326 8.47667 22.1494 8.46361 22.0657 8.46228C21.9809 8.46387 21.8966 8.47692 21.8153 8.50108C21.7221 8.52569 21.633 8.56371 21.5507 8.61396C21.4774 8.65081 21.4135 8.70389 21.3637 8.76917C21.3281 8.81135 21.3104 8.86578 21.3144 8.92085C21.3228 8.97681 21.3487 9.02867 21.3884 9.069C21.4332 9.12421 21.4854 9.1729 21.5437 9.21363L21.5824 9.23821L21.5825 9.23824L21.5826 9.23831L21.5827 9.23838L21.5828 9.23845L21.5829 9.23854C21.6384 9.27379 21.6976 9.31134 21.7659 9.35119H21.7765ZM18.2456 10.1695L20.3127 11.3654L20.5949 11.1855L20.0517 9.86971L19.8894 9.61572H19.907L20.1822 9.80622L21.5932 10.6175L21.9142 10.4341L19.8436 9.23828L19.5296 9.42172L20.0587 10.7022L20.1963 10.9562L19.9353 10.7763L18.5631 9.9861L18.2456 10.1695ZM15.4023 11.0128L18.1608 12.6073L18.9087 12.1698C19.2085 11.997 19.3637 11.8136 19.3672 11.6654C19.3708 11.5172 19.2261 11.3338 18.9369 11.1645C18.8143 11.0928 18.6841 11.0348 18.5489 10.9917C18.435 10.9524 18.3163 10.9287 18.1961 10.9211C18.0861 10.9136 17.9757 10.9219 17.868 10.9458C17.7613 10.9658 17.6572 10.9978 17.5576 11.0411C17.4491 11.0883 17.3431 11.1412 17.2402 11.1998L16.8204 11.4432L16.0091 10.974L17.0497 10.3708L16.8133 10.1909L15.4023 11.0128ZM18.6335 12.0252L18.2314 12.2545L17.092 11.609L17.5047 11.3726C17.6639 11.2695 17.8479 11.211 18.0374 11.2033C18.2255 11.2179 18.4072 11.2785 18.5665 11.3797C18.7923 11.4996 18.9087 11.609 18.9192 11.7042C18.9298 11.7995 18.8346 11.9053 18.6335 12.0252Z" fill="#231F20"/> <path fill-rule="evenodd" clip-rule="evenodd" d="M8.09691 28.3435V15.2319L4.0509 17.5706V25.9766L8.09691 28.3435ZM16.189 5.9652L4.0509 12.9743V17.56L0.00488281 15.1931V10.5015L12.0265 3.56299L16.189 5.9652Z" fill="#00AEEF"/> </svg>