<?xml version="1.0" encoding="UTF-8"?> <svg xmlns="http://www.w3.org/2000/svg" width="58" height="58" viewBox="0 0 58 58" fill="none"> <rect x="0.5" y="0.5" width="57" height="57" stroke="black"></rect> <path d="M28.4644 40.1263H28.4494L28.4353 40.1271L28.4351 40.1271L28.4348 40.1271L28.4344 40.1272L28.4342 40.1272L28.4264 40.1275C28.4186 40.1279 28.4057 40.1284 28.388 40.1289C28.3526 40.1299 28.2977 40.1309 28.2248 40.1306C28.0789 40.1299 27.8613 40.1237 27.5835 40.1012C27.0278 40.0564 26.2331 39.9466 25.2923 39.6865C23.4126 39.1669 20.9491 38.0471 18.636 35.6388C16.0842 32.9817 13.6608 28.9903 11.8657 25.6331C10.9712 23.96 10.2381 22.4549 9.72878 21.3683C9.47419 20.8251 9.27566 20.3869 9.14099 20.0849C9.07366 19.9339 9.0223 19.817 8.98789 19.7381L8.94911 19.6488L8.94252 19.6335L8.93999 19.6262C8.93543 19.6125 8.92853 19.591 8.9207 19.5635C8.90474 19.5075 8.88658 19.4324 8.87553 19.3524C8.86416 19.2702 8.86261 19.1991 8.86997 19.1454C8.8748 19.1101 8.88172 19.0945 8.88371 19.0905C8.92966 19.039 9.07691 18.9637 9.32465 18.9124C9.43238 18.8901 9.53369 18.8773 9.60852 18.8702C9.64553 18.8667 9.67503 18.8647 9.69436 18.8636L9.71497 18.8626L9.71512 18.8626L15.5273 18.8245C15.5355 18.8262 15.545 18.8283 15.5555 18.8307C15.6028 18.8414 15.6707 18.8586 15.7491 18.8834C15.9124 18.9351 16.0917 19.0109 16.2273 19.1104L16.523 18.7075L16.227 19.1101C16.3145 19.1745 16.4014 19.2837 16.473 19.4013C16.5065 19.4563 16.5321 19.5056 16.5489 19.5402C16.5572 19.5573 16.5632 19.5704 16.5666 19.5783L16.5695 19.5848L16.5705 19.5873L16.5791 19.6089L16.6123 19.6911C16.6413 19.7625 16.684 19.8664 16.7391 19.9977C16.8491 20.2601 17.0088 20.6321 17.2081 21.0725C17.6061 21.9518 18.165 23.1107 18.8047 24.2157C20.0323 26.337 20.9577 27.6771 21.7025 28.431C22.0749 28.8079 22.4372 29.0751 22.8052 29.2003C23.1994 29.3343 23.5722 29.2952 23.9037 29.1145L23.9039 29.1144C24.1807 28.9633 24.3665 28.7074 24.4949 28.4544C24.6263 28.1957 24.7228 27.8903 24.796 27.5724C24.9426 26.9359 25.0126 26.1726 25.0434 25.4536C25.0745 24.7301 25.0667 24.0305 25.0514 23.5133C25.0437 23.2543 25.034 23.0399 25.0263 22.8898C25.0224 22.8147 25.019 22.7557 25.0166 22.7151L25.0138 22.6701L25.0138 22.6637C25.0138 22.6474 25.0137 22.6242 25.0134 22.5948C25.0127 22.536 25.011 22.4523 25.0069 22.3496C24.9987 22.1449 24.9809 21.8618 24.9419 21.5489C24.8678 20.9533 24.7057 20.138 24.3061 19.5942C23.9867 19.1593 23.5413 18.8974 23.1483 18.7384C23.0082 18.6817 22.8704 18.6364 22.7407 18.6C22.8735 18.4755 23.039 18.3533 23.2145 18.2674L23.2146 18.2673C23.6553 18.0514 24.3082 17.92 25.1665 17.852C26.0156 17.7847 27.0126 17.7826 28.1151 17.7941L28.1153 17.7941C29.7998 17.811 30.2557 17.9145 30.8856 18.0667L30.8857 18.0668C31.3094 18.1691 31.5238 18.3257 31.6551 18.5144C31.7989 18.7211 31.8932 19.0368 31.9315 19.5545C31.9697 20.07 31.9489 20.7155 31.9159 21.5436C31.9133 21.6091 31.9106 21.6757 31.9078 21.7433C31.8765 22.5199 31.8398 23.4309 31.8398 24.4827C31.8398 24.6893 31.8335 24.9228 31.8268 25.1705C31.812 25.7222 31.7952 26.3445 31.8418 26.8968C31.9085 27.6867 32.1159 28.5904 32.8531 29.0669L32.8534 29.0672C33.0881 29.2186 33.3866 29.2765 33.7269 29.1866C34.0443 29.1027 34.3795 28.8961 34.7465 28.5649C35.4802 27.9027 36.474 26.6189 37.8551 24.2736C38.5211 23.1431 39.1004 21.9192 39.5118 20.9828C39.718 20.5135 39.8829 20.114 39.9966 19.8314C40.0534 19.6901 40.0975 19.5778 40.1274 19.5006C40.1424 19.4619 40.1539 19.432 40.1617 19.4116L40.1654 19.4017C40.1697 19.3933 40.176 19.3811 40.1842 19.3659C40.2035 19.3302 40.2323 19.2803 40.2688 19.226C40.349 19.1069 40.4358 19.0131 40.508 18.9695C40.5805 18.9263 40.6892 18.9006 40.8084 18.8932C40.8634 18.8897 40.9112 18.8908 40.9441 18.8926C40.9603 18.8935 40.9723 18.8946 40.9789 18.8952L40.9821 18.8955L40.9829 18.8956L40.9841 18.8958L40.9846 18.8958L41.0163 18.9002L41.0519 18.9L47.2289 18.8615L47.257 18.8613L47.2844 18.8581L47.2845 18.858L47.2846 18.858L47.2848 18.858L47.285 18.858L47.2866 18.8578L47.2982 18.8566C47.3092 18.8554 47.3264 18.8537 47.349 18.8518C47.3942 18.8479 47.4607 18.843 47.5419 18.8395C47.706 18.8325 47.9224 18.8315 48.1424 18.8531C48.3674 18.8752 48.5673 18.9185 48.7139 18.9843C48.8588 19.0493 48.8988 19.1108 48.9116 19.1464C48.9431 19.2343 48.9608 19.4159 48.8816 19.7414C48.8043 20.0591 48.6467 20.4655 48.3921 20.9686C47.8831 21.9742 47.02 23.3015 45.7651 24.974L46.165 25.2741L45.7651 24.974C45.2517 25.6583 44.7837 26.264 44.3732 26.7952C43.9731 27.3132 43.6277 27.7602 43.3484 28.14C42.7825 28.9096 42.3768 29.5437 42.2498 30.144C42.1077 30.8155 42.3224 31.3698 42.7528 31.9274C43.1407 32.4299 43.7533 32.9982 44.5383 33.7265C44.5786 33.7638 44.6193 33.8016 44.6604 33.8398C46.2869 35.3495 47.2589 36.4628 47.8339 37.2123C48.3122 37.8357 48.5133 38.2018 48.6072 38.3727C48.6256 38.4063 48.6399 38.4323 48.6513 38.4513C48.954 38.9531 48.9681 39.2514 48.9308 39.4118C48.8945 39.568 48.7832 39.7047 48.5793 39.8263C48.3727 39.9494 48.1168 40.0276 47.8952 40.074C47.7876 40.0965 47.6951 40.1101 47.6306 40.1179C47.5984 40.1218 47.5736 40.1243 47.5579 40.1257L47.548 40.1265L42.0774 40.2027L42.0319 40.2033L41.9925 40.2112C41.9931 40.2111 41.9927 40.2111 41.9913 40.2114C41.9884 40.2118 41.9812 40.2129 41.9701 40.2143C41.9477 40.217 41.9094 40.2208 41.8564 40.2229C41.7506 40.227 41.5868 40.2242 41.3766 40.192C40.9585 40.128 40.3475 39.9465 39.637 39.4585L39.6368 39.4583C39.1709 39.1385 38.6955 38.6787 38.2089 38.1523C37.922 37.8419 37.6517 37.5319 37.3807 37.221C37.1811 36.992 36.9811 36.7627 36.7739 36.5325C36.3082 36.0151 35.8281 35.5201 35.3519 35.1864C34.8841 34.8587 34.3102 34.6104 33.7079 34.8014L33.7078 34.8014C33.1602 34.9751 32.7915 35.3896 32.5458 35.8296C32.3 36.2698 32.1496 36.7831 32.0549 37.2507C31.9593 37.7225 31.9154 38.174 31.8951 38.505C31.8849 38.6713 31.8805 38.8091 31.8787 38.9063C31.8779 38.9549 31.8776 38.9935 31.8776 39.0204L31.8777 39.0521L31.8777 39.0611L31.8778 39.0638L31.8778 39.064L31.8778 39.0645V39.0657L31.8776 39.0796C31.8774 39.0933 31.8767 39.1151 31.875 39.1433C31.8715 39.2002 31.8639 39.2794 31.8479 39.3667C31.8128 39.5587 31.7506 39.7139 31.6742 39.7961L31.6738 39.7966C31.574 39.9042 31.3949 39.9941 31.1915 40.0565C31.0973 40.0854 31.0118 40.1042 30.9505 40.1156C30.9235 40.1206 30.9019 40.124 30.8868 40.1263H28.4644ZM8.94546 19.6419L8.94485 19.6403L8.94493 19.6405L8.94507 19.6409L8.94529 19.6415C8.9454 19.6418 8.94546 19.6419 8.94546 19.6419ZM32.3777 39.058L31.8778 39.0653L31.8778 39.0651L31.8778 39.065C31.8778 39.0652 31.8778 39.0653 32.3777 39.058ZM8.88159 19.0929L8.88164 19.0928L8.88159 19.0929ZM15.4907 18.8172L15.4912 18.8173L15.491 18.8172L15.4907 18.8172Z" stroke="black"></path> </svg> 